<svg xmlns="http://www.w3.org/2000/svg" width="599.458" height="677.875" viewBox="0 0 599.458 677.875">
  <g id="Group_172" data-name="Group 172" transform="translate(-537.159 -285.125)">
    <path id="Polygon_1" data-name="Polygon 1" d="M99.5,0,199,158H0Z" transform="translate(936 963) rotate(180)" fill="#fff"/>
    <path id="Polygon_1_-_Outline" data-name="Polygon 1 - Outline" d="M99.5,22.519,21.738,146H177.262L99.5,22.519M99.5,0,199,158H0Z" transform="translate(936 963) rotate(180)" fill="#76b0e9"/>
    <rect id="Rectangle_184" data-name="Rectangle 184" width="199" height="456" transform="translate(737 350)" fill="#76b0e9"/>
    <path id="Rectangle_184_-_Outline" data-name="Rectangle 184 - Outline" d="M1,1V455H198V1H1M0,0H199V456H0Z" transform="translate(737 350)" fill="#76b0e9"/>
    <rect id="Rectangle_185" data-name="Rectangle 185" width="54" height="436" rx="21" transform="translate(748 361)" fill="#fff"/>
    <path id="Rectangle_185_-_Outline" data-name="Rectangle 185 - Outline" d="M21,1A19.982,19.982,0,0,0,1,21V415a19.983,19.983,0,0,0,20,20H33a19.982,19.982,0,0,0,20-20V21A19.983,19.983,0,0,0,33,1H21m0-1H33A21,21,0,0,1,54,21V415a21,21,0,0,1-21,21H21A21,21,0,0,1,0,415V21A21,21,0,0,1,21,0Z" transform="translate(748 361)" fill="#707070"/>
    <rect id="Rectangle_185-2" data-name="Rectangle 185" width="54" height="436" rx="21" transform="translate(809 361)" fill="#fff"/>
    <path id="Rectangle_185_-_Outline-2" data-name="Rectangle 185 - Outline" d="M21,1A19.982,19.982,0,0,0,1,21V415a19.983,19.983,0,0,0,20,20H33a19.982,19.982,0,0,0,20-20V21A19.983,19.983,0,0,0,33,1H21m0-1H33A21,21,0,0,1,54,21V415a21,21,0,0,1-21,21H21A21,21,0,0,1,0,415V21A21,21,0,0,1,21,0Z" transform="translate(809 361)" fill="#707070"/>
    <rect id="Rectangle_185-3" data-name="Rectangle 185" width="54" height="436" rx="21" transform="translate(870 361)" fill="#fff"/>
    <path id="Rectangle_185_-_Outline-3" data-name="Rectangle 185 - Outline" d="M21,1A19.982,19.982,0,0,0,1,21V415a19.983,19.983,0,0,0,20,20H33a19.982,19.982,0,0,0,20-20V21A19.983,19.983,0,0,0,33,1H21m0-1H33A21,21,0,0,1,54,21V415a21,21,0,0,1-21,21H21A21,21,0,0,1,0,415V21A21,21,0,0,1,21,0Z" transform="translate(870 361)" fill="#707070"/>
    <path id="Polygon_2" data-name="Polygon 2" d="M29.5,0,59,68H0Z" transform="translate(866 963) rotate(180)" fill="#76b0e9"/>
    <path id="Polygon_2_-_Outline" data-name="Polygon 2 - Outline" d="M29.5,2.513,1.524,67H57.476L29.5,2.513M29.5,0,59,68H0Z" transform="translate(866 963) rotate(180)" fill="#76b0e9"/>
    <path id="Path_168" data-name="Path 168" d="M515.578-17442.6l270.065-122.758,281.224,91.51-281.224,122.758Z" transform="matrix(1, 0.017, -0.017, 1, -259.29, 17847.76)" fill="#fff"/>
    <path id="Path_168_-_Outline" data-name="Path 168 - Outline" d="M786.006-17342.523l-2.931-.994-289.22-98,291.307-132.412,2.956.961,301.247,98.025ZM537.3-17443.689l247.978,84.025,259.09-113.1-258.245-84.033Z" transform="matrix(1, 0.017, -0.017, 1, -259.29, 17847.76)" fill="#76b0e9"/>
    <path id="Path_169" data-name="Path 169" d="M1416.122-17212.715h-20v-146.9l-78.034-27.24-.1.289-101.724-35.832,6.618-18.873,193.242,67.453Z" transform="translate(-397 17802)" fill="#76b0e9"/>
    <circle id="Ellipse_7" data-name="Ellipse 7" cx="20.5" cy="20.5" r="20.5" transform="translate(989 523)" fill="#76b0e9"/>
    <path id="Ellipse_7_-_Outline" data-name="Ellipse 7 - Outline" d="M20.5,1a19.505,19.505,0,0,0-7.59,37.468A19.505,19.505,0,0,0,28.09,2.532,19.377,19.377,0,0,0,20.5,1m0-1A20.5,20.5,0,1,1,0,20.5,20.5,20.5,0,0,1,20.5,0Z" transform="translate(989 523)" fill="#76afe7"/>
    <circle id="Ellipse_8" data-name="Ellipse 8" cx="10" cy="10" r="10" transform="translate(999 533)" fill="#fff"/>
    <path id="Path_170" data-name="Path 170" d="M-3.585.793,12.9-6.094l-.181,17.57L.109,16.969V2.027Z" transform="translate(1019 426)" fill="#fff"/>
    <path id="Path_170_-_Outline" data-name="Path 170 - Outline" d="M11.883-4.586-.741.689l1.851.618V15.442l10.614-4.624.159-15.4M12.9-6.094l-.181,17.57L.109,16.969V2.027L-3.585.793Z" transform="translate(1019 426)" fill="#fff"/>
  </g>
</svg>
